P3
10 10
255
176 203 150
176 203 150
169 203 150
176 203 150
176 203 150
169 203 150
176 203 150
176 203 150
169 203 150
176 203 150
188 203 150
188 203 150
188 203 150
188 203 150
188 203 150
185 80 80
188 203 150
188 203 150
188 203 150
188 203 150
201 203 150
201 203 150
201 203 150
201 203 150
195 58 58
209 72 72
198 61 61
201 203 150
201 203 150
201 203 150
201 190 150
201 190 150
201 187 150
201 187 150
133 28 28
129 41 41
141 29 29
201 187 150
201 187 150
201 190 150
201 174 150
201 171 150
201 171 150
179 74 74
171 76 76
182 77 77
183 77 77
195 63 63
201 171 150
201 171 150
9 19 15
113 63 62
9 19 15
54 47 47
132 34 34
157 59 59
68 60 60
158 53 53
113 63 62
9 19 15
9 19 15
188 47 47
192 87 87
175 70 70
177 81 81
155 28 28
186 70 70
161 56 56
47 41 41
9 19 15
113 63 62
9 19 15
65 52 52
203 62 62
212 71 71
174 69 69
185 80 80
178 72 72
113 63 62
113 63 62
113 63 62
113 63 62
113 63 62
107 28 28
112 30 30
134 55 55
207 66 66
66 59 59
9 19 15
9 19 15
9 19 15
9 19 15
9 19 15
113 63 62
113 63 62
113 63 62
183 34 34
34 28 28
113 63 62
113 63 62
